<svg width="19" height="18" viewBox="0 0 19 18" fill="none" xmlns="http://www.w3.org/2000/svg">
<path d="M18.1702 8V6H16.1702V4C16.1686 3.47005 15.9574 2.96227 15.5826 2.58753C15.2079 2.2128 14.7001 2.00158 14.1702 2H12.1702V0H10.1702V2H8.17017V0H6.17017V2H4.17017C3.64022 2.00158 3.13243 2.2128 2.7577 2.58753C2.38297 2.96227 2.17175 3.47005 2.17017 4V6H0.170166V8H2.17017V10H0.170166V12H2.17017V14C2.17175 14.5299 2.38297 15.0377 2.7577 15.4125C3.13243 15.7872 3.64022 15.9984 4.17017 16H6.17017V18H8.17017V16H10.1702V18H12.1702V16H14.1702C14.7001 15.9984 15.2079 15.7872 15.5826 15.4125C15.9574 15.0377 16.1686 14.5299 16.1702 14V12H18.1702V10H16.1702V8H18.1702ZM14.1702 14H4.17017V4H14.1702V14Z" fill="#FF6F61"/>
<path d="M8.53115 5H7.18615L5.17615 13H6.20315L6.66715 11.125H8.98315L9.43515 13H10.4971L8.53115 5ZM6.80215 10.324L7.82015 5.95H7.86615L8.84915 10.324H6.80215ZM11.4141 5H12.4141V13H11.4141V5Z" fill="#FF6F61"/>
</svg>
