<svg width="19" height="17" viewBox="0 0 19 17" fill="none" xmlns="http://www.w3.org/2000/svg">
<path d="M0.916626 17V16H9.41663V4.94C8.94463 4.854 8.52796 4.64 8.16663 4.298C7.80529 3.956 7.57529 3.52333 7.47663 3H4.03263L6.91663 10.212C6.87796 10.8787 6.56829 11.446 5.98763 11.914C5.40696 12.382 4.71663 12.616 3.91663 12.616C3.11663 12.616 2.42629 12.382 1.84563 11.914C1.26496 11.446 0.955293 10.8787 0.916626 10.212L3.80163 3H1.91663V2H7.47663C7.58663 1.44267 7.86463 0.97 8.31063 0.582C8.75663 0.194 9.29196 0 9.91663 0C10.5413 0 11.0766 0.194 11.5226 0.582C11.9686 0.97 12.2466 1.44267 12.3566 2H17.9166V3H16.0326L18.9166 10.212C18.878 10.8787 18.5683 11.446 17.9876 11.914C17.407 12.382 16.7166 12.616 15.9166 12.616C15.1166 12.616 14.4263 12.382 13.8456 11.914C13.265 11.446 12.9553 10.8787 12.9166 10.212L15.8006 3H12.3576C12.2583 3.52333 12.028 3.956 11.6666 4.298C11.3053 4.64 10.8886 4.85433 10.4166 4.941V16H18.9166V17H0.916626ZM13.9066 10.116H17.9266L15.9166 5.092L13.9066 10.116ZM1.90663 10.116H5.92663L3.91663 5.092L1.90663 10.116ZM9.91663 4C10.328 4 10.681 3.853 10.9756 3.559C11.2696 3.26433 11.4166 2.91133 11.4166 2.5C11.4166 2.08867 11.2696 1.73567 10.9756 1.441C10.681 1.147 10.328 1 9.91663 1C9.50529 1 9.15229 1.147 8.85763 1.441C8.56296 1.735 8.41596 2.088 8.41663 2.5C8.41729 2.912 8.56429 3.265 8.85763 3.559C9.15229 3.853 9.50529 4 9.91663 4Z" fill="#FF6F61"/>
</svg>
