<svg width="19" height="15" viewBox="0 0 19 15" fill="none" xmlns="http://www.w3.org/2000/svg">
<path d="M0.32312 0.290131C1.37462 2.32263 1.40687 4.22088 2.55587 8.09013C3.94712 12.0959 9.08312 12.3659 9.46337 12.3734C9.80837 12.9179 10.5981 13.6514 12.4079 14.0309L12.6089 13.0769C11.0474 12.7499 10.4759 12.1476 10.2794 11.8169L10.2756 11.8214C10.3409 11.4584 11.4179 7.78863 9.28337 4.80738C5.70962 0.84738 0.32312 0.290131 0.32312 0.290131ZM18.3231 0.920131C15.3996 1.37838 15.1034 0.23013 9.71837 3.23988C10.5959 4.26513 11.2291 5.47633 11.5702 6.78206C11.9112 8.08779 11.9512 9.45394 11.6871 10.7774C14.4794 9.66288 15.5616 7.79538 15.8916 5.92788C15.8916 5.92788 16.8441 2.39088 18.3231 0.920131ZM9.71837 3.23988L9.71687 3.23838V3.24138L9.71837 3.23988ZM2.30537 2.07513C2.30537 2.07513 6.37187 3.14463 8.71262 10.7324C6.50387 10.0656 5.56037 7.88538 5.24012 6.85638H5.24462C4.66005 5.05092 3.65274 3.41154 2.30537 2.07513Z" fill="#FF6F61"/>
</svg>
